<svg xmlns="http://www.w3.org/2000/svg" xmlns:xlink="http://www.w3.org/1999/xlink" width="500" zoomAndPan="magnify" viewBox="0 0 375 374.999991" height="500" preserveAspectRatio="xMidYMid meet" version="1.0"><path fill="#03175f" d="M 91.234375 0 L 283.765625 0 C 285.257812 0 286.75 0.0351562 288.242188 0.109375 C 289.734375 0.183594 291.222656 0.292969 292.707031 0.4375 C 294.195312 0.585938 295.675781 0.769531 297.152344 0.988281 C 298.628906 1.207031 300.101562 1.460938 301.566406 1.753906 C 303.03125 2.042969 304.484375 2.371094 305.933594 2.734375 C 307.382812 3.097656 308.820312 3.496094 310.25 3.929688 C 311.679688 4.363281 313.097656 4.832031 314.5 5.332031 C 315.90625 5.835938 317.300781 6.375 318.679688 6.945312 C 320.058594 7.515625 321.425781 8.121094 322.773438 8.757812 C 324.125 9.398438 325.457031 10.070312 326.773438 10.773438 C 328.089844 11.476562 329.390625 12.210938 330.667969 12.980469 C 331.949219 13.746094 333.210938 14.546875 334.453125 15.375 C 335.695312 16.207031 336.914062 17.066406 338.113281 17.953125 C 339.3125 18.84375 340.488281 19.761719 341.644531 20.710938 C 342.796875 21.65625 343.929688 22.632812 345.035156 23.632812 C 346.140625 24.636719 347.222656 25.664062 348.277344 26.722656 C 349.335938 27.777344 350.363281 28.859375 351.367188 29.964844 C 352.367188 31.070312 353.34375 32.203125 354.289062 33.355469 C 355.238281 34.511719 356.15625 35.6875 357.046875 36.886719 C 357.933594 38.085938 358.792969 39.304688 359.625 40.546875 C 360.453125 41.789062 361.253906 43.050781 362.019531 44.332031 C 362.789062 45.609375 363.523438 46.910156 364.226562 48.226562 C 364.929688 49.542969 365.601562 50.875 366.242188 52.226562 C 366.878906 53.574219 367.484375 54.941406 368.054688 56.320312 C 368.625 57.699219 369.164062 59.09375 369.667969 60.496094 C 370.167969 61.902344 370.636719 63.320312 371.070312 64.75 C 371.503906 66.179688 371.902344 67.617188 372.265625 69.066406 C 372.628906 70.515625 372.957031 71.96875 373.246094 73.433594 C 373.539062 74.898438 373.792969 76.371094 374.011719 77.847656 C 374.230469 79.324219 374.414062 80.804688 374.5625 82.292969 C 374.707031 83.777344 374.816406 85.265625 374.890625 86.757812 C 374.964844 88.25 375 89.742188 375 91.234375 L 375 283.765625 C 375 285.257812 374.964844 286.75 374.890625 288.242188 C 374.816406 289.734375 374.707031 291.222656 374.5625 292.707031 C 374.414062 294.195312 374.230469 295.675781 374.011719 297.152344 C 373.792969 298.628906 373.539062 300.101562 373.246094 301.566406 C 372.957031 303.03125 372.628906 304.484375 372.265625 305.933594 C 371.902344 307.382812 371.503906 308.820312 371.070312 310.25 C 370.636719 311.679688 370.167969 313.097656 369.667969 314.503906 C 369.164062 315.90625 368.625 317.300781 368.054688 318.679688 C 367.484375 320.058594 366.878906 321.425781 366.242188 322.773438 C 365.601562 324.125 364.929688 325.457031 364.226562 326.773438 C 363.523438 328.089844 362.789062 329.390625 362.019531 330.667969 C 361.253906 331.949219 360.453125 333.210938 359.625 334.453125 C 358.792969 335.695312 357.933594 336.914062 357.046875 338.113281 C 356.15625 339.3125 355.238281 340.488281 354.289062 341.644531 C 353.34375 342.796875 352.367188 343.929688 351.367188 345.035156 C 350.363281 346.140625 349.332031 347.222656 348.277344 348.277344 C 347.222656 349.332031 346.140625 350.363281 345.035156 351.367188 C 343.929688 352.367188 342.796875 353.34375 341.644531 354.289062 C 340.488281 355.238281 339.3125 356.15625 338.113281 357.046875 C 336.914062 357.933594 335.695312 358.792969 334.453125 359.625 C 333.210938 360.453125 331.949219 361.253906 330.667969 362.019531 C 329.390625 362.789062 328.089844 363.523438 326.773438 364.226562 C 325.457031 364.929688 324.125 365.601562 322.773438 366.242188 C 321.425781 366.878906 320.058594 367.484375 318.679688 368.054688 C 317.300781 368.625 315.90625 369.164062 314.5 369.667969 C 313.097656 370.167969 311.679688 370.636719 310.25 371.070312 C 308.820312 371.503906 307.382812 371.902344 305.933594 372.265625 C 304.484375 372.628906 303.03125 372.957031 301.566406 373.246094 C 300.101562 373.539062 298.628906 373.792969 297.152344 374.011719 C 295.675781 374.230469 294.195312 374.414062 292.707031 374.5625 C 291.222656 374.707031 289.734375 374.816406 288.242188 374.890625 C 286.75 374.964844 285.257812 375 283.765625 375 L 91.234375 375 C 89.742188 375 88.25 374.964844 86.757812 374.890625 C 85.265625 374.816406 83.777344 374.707031 82.292969 374.5625 C 80.804688 374.414062 79.324219 374.230469 77.847656 374.011719 C 76.371094 373.792969 74.898438 373.539062 73.433594 373.246094 C 71.96875 372.957031 70.515625 372.628906 69.066406 372.265625 C 67.617188 371.902344 66.179688 371.503906 64.75 371.070312 C 63.320312 370.636719 61.902344 370.167969 60.496094 369.667969 C 59.09375 369.164062 57.699219 368.625 56.320312 368.054688 C 54.941406 367.484375 53.574219 366.878906 52.226562 366.242188 C 50.875 365.601562 49.542969 364.929688 48.226562 364.226562 C 46.910156 363.523438 45.609375 362.789062 44.332031 362.019531 C 43.050781 361.253906 41.789062 360.453125 40.546875 359.625 C 39.304688 358.792969 38.085938 357.933594 36.886719 357.046875 C 35.6875 356.15625 34.511719 355.238281 33.355469 354.289062 C 32.203125 353.34375 31.070312 352.367188 29.964844 351.367188 C 28.859375 350.363281 27.777344 349.332031 26.722656 348.277344 C 25.664062 347.222656 24.636719 346.140625 23.632812 345.035156 C 22.632812 343.929688 21.65625 342.796875 20.710938 341.644531 C 19.761719 340.488281 18.84375 339.3125 17.953125 338.113281 C 17.066406 336.914062 16.207031 335.695312 15.375 334.453125 C 14.546875 333.210938 13.746094 331.949219 12.980469 330.667969 C 12.210938 329.390625 11.476562 328.089844 10.773438 326.773438 C 10.070312 325.457031 9.398438 324.125 8.757812 322.773438 C 8.121094 321.425781 7.515625 320.058594 6.945312 318.679688 C 6.375 317.300781 5.835938 315.90625 5.332031 314.5 C 4.832031 313.097656 4.363281 311.679688 3.929688 310.25 C 3.496094 308.820312 3.097656 307.382812 2.734375 305.933594 C 2.371094 304.484375 2.042969 303.03125 1.753906 301.566406 C 1.460938 300.101562 1.207031 298.628906 0.988281 297.152344 C 0.769531 295.675781 0.585938 294.195312 0.4375 292.707031 C 0.292969 291.222656 0.183594 289.734375 0.109375 288.242188 C 0.0351562 286.75 0 285.257812 0 283.765625 L 0 91.234375 C 0 89.742188 0.0351562 88.25 0.109375 86.757812 C 0.183594 85.265625 0.292969 83.777344 0.4375 82.292969 C 0.585938 80.804688 0.769531 79.324219 0.988281 77.847656 C 1.207031 76.371094 1.460938 74.898438 1.753906 73.433594 C 2.042969 71.96875 2.371094 70.515625 2.734375 69.066406 C 3.097656 67.617188 3.496094 66.179688 3.929688 64.75 C 4.363281 63.320312 4.832031 61.902344 5.332031 60.496094 C 5.835938 59.09375 6.375 57.699219 6.945312 56.320312 C 7.515625 54.941406 8.121094 53.574219 8.757812 52.226562 C 9.398438 50.875 10.070312 49.542969 10.773438 48.226562 C 11.476562 46.910156 12.210938 45.609375 12.980469 44.332031 C 13.746094 43.050781 14.546875 41.789062 15.375 40.546875 C 16.207031 39.304688 17.066406 38.085938 17.953125 36.886719 C 18.84375 35.6875 19.761719 34.511719 20.710938 33.355469 C 21.65625 32.203125 22.632812 31.070312 23.632812 29.964844 C 24.636719 28.859375 25.664062 27.777344 26.722656 26.722656 C 27.777344 25.664062 28.859375 24.636719 29.964844 23.632812 C 31.070312 22.632812 32.203125 21.65625 33.355469 20.710938 C 34.511719 19.761719 35.6875 18.84375 36.886719 17.953125 C 38.085938 17.066406 39.304688 16.207031 40.546875 15.375 C 41.789062 14.546875 43.050781 13.746094 44.332031 12.980469 C 45.609375 12.210938 46.910156 11.476562 48.226562 10.773438 C 49.542969 10.070312 50.875 9.398438 52.226562 8.757812 C 53.574219 8.121094 54.941406 7.515625 56.320312 6.945312 C 57.699219 6.375 59.09375 5.835938 60.496094 5.332031 C 61.902344 4.832031 63.320312 4.363281 64.75 3.929688 C 66.179688 3.496094 67.617188 3.097656 69.066406 2.734375 C 70.515625 2.371094 71.96875 2.042969 73.433594 1.753906 C 74.898438 1.460938 76.371094 1.207031 77.847656 0.988281 C 79.324219 0.769531 80.804688 0.585938 82.292969 0.4375 C 83.777344 0.292969 85.265625 0.183594 86.757812 0.109375 C 88.25 0.0351562 89.742188 0 91.234375 0 Z M 91.234375 0 " fill-opacity="1" fill-rule="nonzero"/><path fill="#ffffff" d="M 199.59375 246.109375 L 93.507812 246.109375 C 92.925781 246.109375 92.34375 246.078125 91.765625 246.019531 C 91.1875 245.960938 90.613281 245.875 90.042969 245.761719 C 89.472656 245.648438 88.910156 245.503906 88.351562 245.335938 C 87.796875 245.167969 87.25 244.96875 86.714844 244.746094 C 86.175781 244.523438 85.652344 244.273438 85.136719 244 C 84.625 243.726562 84.128906 243.425781 83.644531 243.101562 C 83.160156 242.777344 82.695312 242.433594 82.246094 242.0625 C 81.796875 241.695312 81.367188 241.304688 80.957031 240.894531 C 80.542969 240.480469 80.152344 240.050781 79.785156 239.601562 C 79.417969 239.152344 79.070312 238.683594 78.746094 238.203125 C 78.425781 237.71875 78.125 237.21875 77.851562 236.707031 C 77.578125 236.195312 77.328125 235.667969 77.105469 235.132812 C 76.882812 234.59375 76.6875 234.046875 76.519531 233.492188 C 76.347656 232.933594 76.207031 232.371094 76.09375 231.800781 C 75.980469 231.230469 75.894531 230.65625 75.835938 230.078125 C 75.78125 229.5 75.75 228.917969 75.75 228.335938 L 75.75 87.519531 C 75.75 86.941406 75.78125 86.359375 75.835938 85.78125 C 75.894531 85.203125 75.980469 84.628906 76.09375 84.058594 C 76.207031 83.488281 76.347656 82.921875 76.519531 82.367188 C 76.6875 81.8125 76.882812 81.265625 77.105469 80.726562 C 77.328125 80.191406 77.578125 79.664062 77.851562 79.152344 C 78.125 78.640625 78.425781 78.140625 78.746094 77.65625 C 79.070312 77.171875 79.417969 76.707031 79.785156 76.257812 C 80.152344 75.808594 80.542969 75.378906 80.957031 74.964844 C 81.367188 74.554688 81.796875 74.164062 82.246094 73.796875 C 82.695312 73.425781 83.160156 73.078125 83.644531 72.757812 C 84.128906 72.433594 84.625 72.132812 85.136719 71.859375 C 85.652344 71.585938 86.175781 71.335938 86.714844 71.113281 C 87.25 70.890625 87.796875 70.691406 88.351562 70.523438 C 88.910156 70.351562 89.472656 70.210938 90.042969 70.097656 C 90.613281 69.984375 91.1875 69.898438 91.765625 69.839844 C 92.34375 69.78125 92.925781 69.75 93.507812 69.75 L 168.289062 69.75 C 170.648438 69.742188 172.914062 70.191406 175.09375 71.09375 C 177.273438 71.996094 179.195312 73.285156 180.859375 74.953125 L 212.160156 106.253906 C 213.832031 107.914062 215.117188 109.835938 216.019531 112.015625 C 216.921875 114.195312 217.371094 116.464844 217.363281 118.824219 L 217.363281 228.324219 C 217.363281 228.90625 217.335938 229.484375 217.277344 230.066406 C 217.222656 230.644531 217.136719 231.21875 217.023438 231.789062 C 216.910156 232.359375 216.769531 232.925781 216.597656 233.484375 C 216.429688 234.039062 216.234375 234.585938 216.011719 235.125 C 215.789062 235.664062 215.539062 236.1875 215.265625 236.703125 C 214.992188 237.214844 214.691406 237.714844 214.371094 238.199219 C 214.046875 238.683594 213.699219 239.148438 213.332031 239.601562 C 212.960938 240.050781 212.570312 240.480469 212.160156 240.894531 C 211.75 241.304688 211.316406 241.695312 210.867188 242.066406 C 210.417969 242.433594 209.949219 242.78125 209.46875 243.105469 C 208.984375 243.429688 208.484375 243.726562 207.972656 244.003906 C 207.457031 244.277344 206.933594 244.527344 206.394531 244.75 C 205.855469 244.972656 205.308594 245.167969 204.753906 245.339844 C 204.195312 245.507812 203.632812 245.648438 203.0625 245.765625 C 202.492188 245.878906 201.914062 245.964844 201.335938 246.019531 C 200.757812 246.078125 200.175781 246.109375 199.59375 246.109375 Z M 93.507812 77.523438 C 92.851562 77.523438 92.199219 77.589844 91.554688 77.71875 C 90.914062 77.847656 90.289062 78.035156 89.683594 78.289062 C 89.074219 78.539062 88.5 78.847656 87.953125 79.210938 C 87.410156 79.578125 86.902344 79.992188 86.441406 80.457031 C 85.976562 80.917969 85.5625 81.425781 85.195312 81.96875 C 84.832031 82.515625 84.523438 83.089844 84.273438 83.695312 C 84.019531 84.304688 83.832031 84.929688 83.703125 85.570312 C 83.574219 86.214844 83.507812 86.863281 83.507812 87.519531 L 83.507812 228.335938 C 83.507812 228.992188 83.574219 229.644531 83.703125 230.289062 C 83.832031 230.929688 84.019531 231.554688 84.273438 232.160156 C 84.523438 232.769531 84.832031 233.34375 85.195312 233.890625 C 85.5625 234.433594 85.976562 234.941406 86.441406 235.402344 C 86.902344 235.867188 87.410156 236.28125 87.953125 236.648438 C 88.5 237.011719 89.074219 237.320312 89.683594 237.570312 C 90.289062 237.824219 90.914062 238.011719 91.554688 238.140625 C 92.199219 238.269531 92.851562 238.335938 93.507812 238.335938 L 199.59375 238.335938 C 200.25 238.335938 200.898438 238.269531 201.542969 238.140625 C 202.1875 238.011719 202.8125 237.824219 203.417969 237.570312 C 204.023438 237.320312 204.601562 237.011719 205.144531 236.648438 C 205.691406 236.28125 206.195312 235.867188 206.660156 235.402344 C 207.125 234.941406 207.539062 234.433594 207.902344 233.890625 C 208.269531 233.34375 208.574219 232.769531 208.828125 232.160156 C 209.078125 231.554688 209.269531 230.929688 209.398438 230.289062 C 209.527344 229.644531 209.589844 228.992188 209.589844 228.335938 L 209.589844 118.835938 C 209.597656 117.507812 209.347656 116.230469 208.839844 115 C 208.332031 113.769531 207.605469 112.6875 206.664062 111.75 L 175.359375 80.453125 C 174.425781 79.511719 173.34375 78.785156 172.117188 78.277344 C 170.890625 77.769531 169.617188 77.519531 168.289062 77.523438 Z M 93.507812 77.523438 " fill-opacity="1" fill-rule="nonzero"/><path fill="#ffffff" d="M 212.25 116.957031 L 187.925781 116.957031 C 187.34375 116.957031 186.765625 116.929688 186.1875 116.871094 C 185.605469 116.8125 185.03125 116.726562 184.460938 116.613281 C 183.890625 116.5 183.328125 116.359375 182.769531 116.1875 C 182.214844 116.019531 181.667969 115.824219 181.128906 115.601562 C 180.59375 115.375 180.066406 115.128906 179.554688 114.851562 C 179.039062 114.578125 178.542969 114.28125 178.058594 113.957031 C 177.574219 113.632812 177.109375 113.285156 176.660156 112.917969 C 176.207031 112.546875 175.777344 112.15625 175.367188 111.746094 C 174.957031 111.335938 174.566406 110.902344 174.195312 110.453125 C 173.828125 110.003906 173.480469 109.539062 173.15625 109.054688 C 172.832031 108.570312 172.535156 108.070312 172.261719 107.558594 C 171.984375 107.046875 171.738281 106.519531 171.515625 105.980469 C 171.289062 105.445312 171.09375 104.898438 170.925781 104.339844 C 170.757812 103.785156 170.613281 103.21875 170.5 102.648438 C 170.386719 102.078125 170.300781 101.503906 170.242188 100.925781 C 170.1875 100.347656 170.15625 99.765625 170.15625 99.183594 L 170.15625 74.886719 C 170.171875 74.382812 170.28125 73.898438 170.484375 73.4375 C 170.691406 72.976562 170.972656 72.566406 171.335938 72.214844 C 171.699219 71.863281 172.113281 71.59375 172.582031 71.402344 C 173.050781 71.214844 173.539062 71.121094 174.042969 71.121094 C 174.546875 71.121094 175.035156 71.214844 175.503906 71.402344 C 175.972656 71.59375 176.386719 71.863281 176.75 72.214844 C 177.113281 72.566406 177.394531 72.976562 177.601562 73.4375 C 177.804688 73.898438 177.914062 74.382812 177.929688 74.886719 L 177.929688 99.183594 C 177.929688 99.839844 177.996094 100.488281 178.125 101.132812 C 178.25 101.777344 178.441406 102.402344 178.691406 103.007812 C 178.945312 103.617188 179.253906 104.191406 179.617188 104.738281 C 179.980469 105.28125 180.394531 105.789062 180.859375 106.253906 C 181.324219 106.714844 181.828125 107.132812 182.375 107.496094 C 182.921875 107.859375 183.496094 108.167969 184.101562 108.421875 C 184.707031 108.671875 185.332031 108.863281 185.976562 108.992188 C 186.621094 109.121094 187.269531 109.183594 187.925781 109.183594 L 212.25 109.183594 C 212.753906 109.199219 213.238281 109.3125 213.699219 109.515625 C 214.164062 109.71875 214.570312 110.003906 214.921875 110.363281 C 215.273438 110.726562 215.542969 111.144531 215.734375 111.613281 C 215.921875 112.078125 216.019531 112.566406 216.019531 113.070312 C 216.019531 113.578125 215.921875 114.0625 215.734375 114.53125 C 215.542969 115 215.273438 115.414062 214.921875 115.777344 C 214.570312 116.140625 214.164062 116.425781 213.699219 116.628906 C 213.238281 116.832031 212.753906 116.941406 212.25 116.957031 Z M 212.25 116.957031 " fill-opacity="1" fill-rule="nonzero"/><path fill="#ffffff" d="M 281.492188 313.5 L 175.40625 313.5 C 174.824219 313.5 174.242188 313.46875 173.664062 313.414062 C 173.085938 313.355469 172.511719 313.269531 171.941406 313.15625 C 171.371094 313.042969 170.804688 312.898438 170.25 312.730469 C 169.691406 312.5625 169.144531 312.363281 168.609375 312.140625 C 168.070312 311.917969 167.546875 311.671875 167.03125 311.394531 C 166.519531 311.121094 166.019531 310.824219 165.539062 310.5 C 165.054688 310.175781 164.585938 309.828125 164.136719 309.460938 C 163.6875 309.089844 163.257812 308.699219 162.84375 308.289062 C 162.433594 307.878906 162.042969 307.449219 161.675781 306.996094 C 161.304688 306.546875 160.960938 306.082031 160.636719 305.597656 C 160.3125 305.113281 160.011719 304.617188 159.738281 304.101562 C 159.464844 303.589844 159.214844 303.0625 158.992188 302.527344 C 158.769531 301.988281 158.574219 301.441406 158.40625 300.886719 C 158.234375 300.328125 158.09375 299.765625 157.980469 299.195312 C 157.867188 298.625 157.78125 298.050781 157.722656 297.46875 C 157.664062 296.890625 157.636719 296.3125 157.636719 295.730469 L 157.636719 242.222656 C 157.625 241.964844 157.644531 241.703125 157.6875 241.449219 C 157.734375 241.191406 157.800781 240.941406 157.894531 240.699219 C 157.988281 240.457031 158.105469 240.226562 158.246094 240.003906 C 158.386719 239.785156 158.546875 239.582031 158.730469 239.394531 C 158.910156 239.210938 159.109375 239.042969 159.324219 238.894531 C 159.539062 238.746094 159.765625 238.625 160.007812 238.523438 C 160.246094 238.421875 160.492188 238.34375 160.75 238.292969 C 161.003906 238.242188 161.261719 238.214844 161.523438 238.214844 C 161.78125 238.214844 162.039062 238.242188 162.296875 238.292969 C 162.550781 238.34375 162.796875 238.421875 163.039062 238.523438 C 163.277344 238.625 163.503906 238.746094 163.71875 238.894531 C 163.933594 239.042969 164.132812 239.210938 164.3125 239.394531 C 164.496094 239.582031 164.65625 239.785156 164.796875 240.003906 C 164.9375 240.226562 165.054688 240.457031 165.148438 240.699219 C 165.242188 240.941406 165.3125 241.191406 165.355469 241.449219 C 165.398438 241.703125 165.417969 241.964844 165.410156 242.222656 L 165.410156 295.730469 C 165.410156 296.386719 165.472656 297.035156 165.601562 297.679688 C 165.730469 298.320312 165.921875 298.945312 166.171875 299.554688 C 166.425781 300.160156 166.730469 300.734375 167.097656 301.28125 C 167.460938 301.824219 167.875 302.332031 168.339844 302.792969 C 168.804688 303.257812 169.308594 303.671875 169.855469 304.039062 C 170.398438 304.402344 170.976562 304.710938 171.582031 304.960938 C 172.1875 305.214844 172.8125 305.402344 173.457031 305.53125 C 174.101562 305.660156 174.75 305.726562 175.40625 305.726562 L 281.492188 305.726562 C 282.148438 305.726562 282.800781 305.660156 283.445312 305.53125 C 284.085938 305.402344 284.710938 305.214844 285.316406 304.960938 C 285.925781 304.710938 286.5 304.402344 287.046875 304.039062 C 287.589844 303.671875 288.097656 303.257812 288.558594 302.792969 C 289.023438 302.332031 289.4375 301.824219 289.804688 301.28125 C 290.167969 300.734375 290.476562 300.160156 290.726562 299.554688 C 290.980469 298.945312 291.167969 298.320312 291.296875 297.679688 C 291.425781 297.035156 291.492188 296.386719 291.492188 295.730469 L 291.492188 186.230469 C 291.492188 184.902344 291.238281 183.628906 290.730469 182.402344 C 290.222656 181.179688 289.5 180.097656 288.5625 179.160156 L 257.25 147.84375 C 256.3125 146.90625 255.230469 146.1875 254.007812 145.679688 C 252.78125 145.171875 251.507812 144.917969 250.179688 144.914062 L 213.476562 144.914062 C 212.972656 144.898438 212.488281 144.789062 212.027344 144.585938 C 211.5625 144.382812 211.15625 144.097656 210.804688 143.734375 C 210.453125 143.371094 210.183594 142.957031 209.992188 142.488281 C 209.804688 142.019531 209.707031 141.535156 209.707031 141.027344 C 209.707031 140.523438 209.804688 140.035156 209.992188 139.566406 C 210.183594 139.097656 210.453125 138.683594 210.804688 138.320312 C 211.15625 137.957031 211.5625 137.675781 212.027344 137.472656 C 212.488281 137.265625 212.972656 137.15625 213.476562 137.140625 L 250.191406 137.140625 C 252.546875 137.144531 254.816406 137.59375 256.992188 138.496094 C 259.167969 139.398438 261.089844 140.679688 262.757812 142.347656 L 294.058594 173.644531 C 295.722656 175.3125 297.003906 177.234375 297.902344 179.410156 C 298.804688 181.589844 299.25 183.855469 299.25 186.210938 L 299.25 295.730469 C 299.25 296.308594 299.21875 296.890625 299.164062 297.46875 C 299.105469 298.046875 299.019531 298.621094 298.90625 299.191406 C 298.792969 299.761719 298.652344 300.328125 298.480469 300.882812 C 298.3125 301.4375 298.117188 301.984375 297.894531 302.523438 C 297.671875 303.058594 297.421875 303.585938 297.148438 304.097656 C 296.875 304.609375 296.574219 305.109375 296.253906 305.59375 C 295.929688 306.078125 295.582031 306.542969 295.214844 306.992188 C 294.847656 307.441406 294.457031 307.871094 294.042969 308.285156 C 293.632812 308.695312 293.203125 309.085938 292.753906 309.453125 C 292.304688 309.824219 291.839844 310.171875 291.355469 310.492188 C 290.871094 310.816406 290.375 311.117188 289.863281 311.390625 C 289.347656 311.664062 288.824219 311.914062 288.285156 312.136719 C 287.75 312.359375 287.203125 312.558594 286.648438 312.726562 C 286.089844 312.898438 285.527344 313.039062 284.957031 313.152344 C 284.386719 313.265625 283.8125 313.351562 283.234375 313.410156 C 282.65625 313.46875 282.074219 313.5 281.492188 313.5 Z M 281.492188 313.5 " fill-opacity="1" fill-rule="nonzero"/><path fill="#ffffff" d="M 294.132812 184.351562 L 269.828125 184.351562 C 269.246094 184.347656 268.664062 184.320312 268.085938 184.261719 C 267.507812 184.203125 266.933594 184.117188 266.363281 184.003906 C 265.789062 183.890625 265.226562 183.75 264.671875 183.578125 C 264.113281 183.410156 263.566406 183.214844 263.03125 182.992188 C 262.492188 182.769531 261.964844 182.519531 261.453125 182.246094 C 260.941406 181.96875 260.441406 181.671875 259.957031 181.347656 C 259.476562 181.023438 259.007812 180.675781 258.558594 180.308594 C 258.109375 179.9375 257.679688 179.546875 257.265625 179.136719 C 256.855469 178.726562 256.464844 178.292969 256.09375 177.84375 C 255.726562 177.394531 255.378906 176.929688 255.058594 176.445312 C 254.734375 175.960938 254.433594 175.460938 254.160156 174.949219 C 253.886719 174.4375 253.636719 173.910156 253.414062 173.375 C 253.191406 172.835938 252.996094 172.289062 252.824219 171.730469 C 252.65625 171.175781 252.515625 170.613281 252.402344 170.039062 C 252.285156 169.46875 252.199219 168.894531 252.144531 168.316406 C 252.085938 167.738281 252.058594 167.15625 252.054688 166.574219 L 252.054688 142.277344 C 252.046875 142.019531 252.066406 141.761719 252.109375 141.503906 C 252.152344 141.246094 252.222656 140.996094 252.316406 140.753906 C 252.410156 140.511719 252.527344 140.28125 252.667969 140.0625 C 252.808594 139.839844 252.96875 139.636719 253.152344 139.453125 C 253.332031 139.265625 253.53125 139.097656 253.746094 138.949219 C 253.960938 138.804688 254.1875 138.679688 254.425781 138.578125 C 254.667969 138.476562 254.914062 138.398438 255.167969 138.347656 C 255.425781 138.296875 255.683594 138.269531 255.941406 138.269531 C 256.203125 138.269531 256.460938 138.296875 256.714844 138.347656 C 256.972656 138.398438 257.21875 138.476562 257.460938 138.578125 C 257.699219 138.679688 257.925781 138.804688 258.140625 138.949219 C 258.355469 139.097656 258.554688 139.265625 258.734375 139.453125 C 258.917969 139.636719 259.078125 139.839844 259.21875 140.0625 C 259.359375 140.28125 259.476562 140.511719 259.570312 140.753906 C 259.664062 140.996094 259.730469 141.246094 259.777344 141.503906 C 259.820312 141.761719 259.839844 142.019531 259.828125 142.277344 L 259.828125 166.574219 C 259.832031 167.230469 259.894531 167.882812 260.023438 168.523438 C 260.152344 169.167969 260.339844 169.792969 260.59375 170.398438 C 260.84375 171.007812 261.152344 171.582031 261.515625 172.128906 C 261.882812 172.675781 262.296875 173.179688 262.761719 173.644531 C 263.222656 174.109375 263.730469 174.523438 264.273438 174.886719 C 264.820312 175.253906 265.394531 175.558594 266.003906 175.8125 C 266.609375 176.0625 267.234375 176.253906 267.878906 176.382812 C 268.519531 176.511719 269.171875 176.574219 269.828125 176.578125 L 294.132812 176.578125 C 294.636719 176.59375 295.121094 176.703125 295.582031 176.90625 C 296.042969 177.109375 296.449219 177.394531 296.800781 177.757812 C 297.152344 178.117188 297.425781 178.535156 297.613281 179.003906 C 297.804688 179.472656 297.898438 179.957031 297.898438 180.464844 C 297.898438 180.96875 297.804688 181.457031 297.613281 181.921875 C 297.425781 182.390625 297.152344 182.808594 296.800781 183.167969 C 296.449219 183.53125 296.042969 183.816406 295.582031 184.019531 C 295.121094 184.222656 294.636719 184.335938 294.132812 184.351562 Z M 294.132812 184.351562 " fill-opacity="1" fill-rule="nonzero"/></svg>